<svg width="150" height="150" viewBox="0 0 150 150" fill="none" xmlns="http://www.w3.org/2000/svg">
<path d="M150 75C150 116.421 116.421 150 75 150C33.5786 150 0 116.421 0 75C0 33.5786 33.5786 0 75 0C116.421 0 150 33.5786 150 75Z" fill="#1F1B1B"/>
<path d="M28.1705 88V61.8182H31.3409V85.1875H43.5114V88H28.1705Z" fill="white"/>
<path d="M69.4918 74.9091C69.4918 77.6705 68.9933 80.0568 67.9961 82.0682C66.9989 84.0795 65.631 85.6307 63.8924 86.7216C62.1538 87.8125 60.168 88.358 57.935 88.358C55.7021 88.358 53.7163 87.8125 51.9776 86.7216C50.239 85.6307 48.8711 84.0795 47.8739 82.0682C46.8768 80.0568 46.3782 77.6705 46.3782 74.9091C46.3782 72.1477 46.8768 69.7614 47.8739 67.75C48.8711 65.7386 50.239 64.1875 51.9776 63.0966C53.7163 62.0057 55.7021 61.4602 57.935 61.4602C60.168 61.4602 62.1538 62.0057 63.8924 63.0966C65.631 64.1875 66.9989 65.7386 67.9961 67.75C68.9933 69.7614 69.4918 72.1477 69.4918 74.9091ZM66.4237 74.9091C66.4237 72.642 66.0444 70.7287 65.2859 69.169C64.5359 67.6094 63.5174 66.429 62.2305 65.6278C60.9521 64.8267 59.5202 64.4261 57.935 64.4261C56.3498 64.4261 54.9137 64.8267 53.6268 65.6278C52.3484 66.429 51.3299 67.6094 50.5714 69.169C49.8214 70.7287 49.4464 72.642 49.4464 74.9091C49.4464 77.1761 49.8214 79.0895 50.5714 80.6491C51.3299 82.2088 52.3484 83.3892 53.6268 84.1903C54.9137 84.9915 56.3498 85.392 57.935 85.392C59.5202 85.392 60.9521 84.9915 62.2305 84.1903C63.5174 83.3892 64.5359 82.2088 65.2859 80.6491C66.0444 79.0895 66.4237 77.1761 66.4237 74.9091Z" fill="white"/>
<path d="M92.7205 70C92.4393 69.1392 92.0685 68.3679 91.6083 67.6861C91.1566 66.9957 90.6154 66.4077 89.9847 65.9219C89.3626 65.4361 88.6552 65.0653 87.8626 64.8097C87.07 64.554 86.2006 64.4261 85.2546 64.4261C83.7035 64.4261 82.293 64.8267 81.0231 65.6278C79.7532 66.429 78.7433 67.6094 77.9933 69.169C77.2433 70.7287 76.8683 72.642 76.8683 74.9091C76.8683 77.1761 77.2475 79.0895 78.006 80.6491C78.7646 82.2088 79.7916 83.3892 81.087 84.1903C82.3825 84.9915 83.8398 85.392 85.4592 85.392C86.9592 85.392 88.2802 85.0724 89.4222 84.4332C90.5728 83.7855 91.4677 82.8736 92.1069 81.6974C92.7546 80.5128 93.0785 79.1193 93.0785 77.517L94.0501 77.7216H86.1751V74.9091H96.1467V77.7216C96.1467 79.8778 95.6864 81.7528 94.766 83.3466C93.8541 84.9403 92.5927 86.1761 90.9819 87.054C89.3796 87.9233 87.5387 88.358 85.4592 88.358C83.141 88.358 81.104 87.8125 79.3484 86.7216C77.6012 85.6307 76.2376 84.0795 75.2575 82.0682C74.2859 80.0568 73.8001 77.6705 73.8001 74.9091C73.8001 72.8381 74.0771 70.9759 74.631 69.3224C75.1935 67.6605 75.9862 66.2457 77.0089 65.0781C78.0316 63.9105 79.2418 63.0156 80.6396 62.3935C82.0373 61.7713 83.5756 61.4602 85.2546 61.4602C86.6353 61.4602 87.9222 61.669 89.1154 62.0866C90.3171 62.4957 91.3867 63.0795 92.3242 63.8381C93.2702 64.5881 94.0586 65.4872 94.6893 66.5355C95.32 67.5753 95.7546 68.7301 95.9933 70H92.7205Z" fill="white"/>
<path d="M123.668 74.9091C123.668 77.6705 123.169 80.0568 122.172 82.0682C121.175 84.0795 119.807 85.6307 118.068 86.7216C116.33 87.8125 114.344 88.358 112.111 88.358C109.878 88.358 107.892 87.8125 106.153 86.7216C104.415 85.6307 103.047 84.0795 102.05 82.0682C101.053 80.0568 100.554 77.6705 100.554 74.9091C100.554 72.1477 101.053 69.7614 102.05 67.75C103.047 65.7386 104.415 64.1875 106.153 63.0966C107.892 62.0057 109.878 61.4602 112.111 61.4602C114.344 61.4602 116.33 62.0057 118.068 63.0966C119.807 64.1875 121.175 65.7386 122.172 67.75C123.169 69.7614 123.668 72.1477 123.668 74.9091ZM120.599 74.9091C120.599 72.642 120.22 70.7287 119.462 69.169C118.712 67.6094 117.693 66.429 116.406 65.6278C115.128 64.8267 113.696 64.4261 112.111 64.4261C110.526 64.4261 109.089 64.8267 107.803 65.6278C106.524 66.429 105.506 67.6094 104.747 69.169C103.997 70.7287 103.622 72.642 103.622 74.9091C103.622 77.1761 103.997 79.0895 104.747 80.6491C105.506 82.2088 106.524 83.3892 107.803 84.1903C109.089 84.9915 110.526 85.392 112.111 85.392C113.696 85.392 115.128 84.9915 116.406 84.1903C117.693 83.3892 118.712 82.2088 119.462 80.6491C120.22 79.0895 120.599 77.1761 120.599 74.9091Z" fill="white"/>
</svg>
